<?xml version="1.0" encoding="UTF-8"?>
<!DOCTYPE svg PUBLIC "-//W3C//DTD SVG 1.1//EN" "http://www.w3.org/Graphics/SVG/1.1/DTD/svg11.dtd">
<!-- Creator: CorelDRAW 2017 -->
<svg xmlns="http://www.w3.org/2000/svg" xml:space="preserve" width="88px" height="88px" version="1.1" style="shape-rendering:geometricPrecision; text-rendering:geometricPrecision; image-rendering:optimizeQuality; fill-rule:evenodd; clip-rule:evenodd"
viewBox="0 0 17.8 17.8"
 xmlns:xlink="http://www.w3.org/1999/xlink"
 xmlns:cc="http://creativecommons.org/ns#"
 xmlns:dc="http://purl.org/dc/elements/1.1/"
 xmlns:inkscape="http://www.inkscape.org/namespaces/inkscape"
 xmlns:rdf="http://www.w3.org/1999/02/22-rdf-syntax-ns#"
 xmlns:sodipodi="http://sodipodi.sourceforge.net/DTD/sodipodi-0.dtd"
 xmlns:svg="http://www.w3.org/2000/svg">
 <defs>
  <style type="text/css">
   <![CDATA[
    .fil0 {fill:none}
    .fil1 {fill:#FF3FA5}
   ]]>
  </style>
 </defs>
 <g id="Layer_x0020_1">
  <metadata id="CorelCorpID_0Corel-Layer"/>
  <rect class="fil0" width="17.8" height="17.8"/>
  <g id="_1984507582608">
   <g id="_2734313460496">
    <path class="fil1" d="M2.38 4.09c0.02,0.11 0.04,0.12 0.12,0.19l1.73 1.51c0.54,0.5 1.16,1.01 1.7,1.51 0.08,0.07 0.11,0.09 0.19,0.16l0.69 0.61c0.07,0.07 0.11,0.09 0.18,0.15 0.42,0.38 0.84,0.83 1.55,0.46 0.13,-0.07 0.42,-0.3 0.53,-0.42l4.51 -3.97c0.08,-0.06 0.11,-0.09 0.13,-0.2 -0.11,-0.17 -0.31,-0.21 -0.55,-0.22l-1.05 -0.03c-0.35,0 -0.64,0.04 -0.92,0.01l-6.49 0c-0.26,0.04 -0.63,-0.01 -0.99,-0.01 -0.28,0 -0.48,0.03 -0.75,0.04 -0.26,0 -0.47,0.06 -0.58,0.21l0 0 0 0zm13.28 4.61l0.36 0c0.2,0 0.37,0.16 0.37,0.36l0 0c0,0.2 -0.17,0.36 -0.37,0.36l-0.36 0c-0.2,0 -0.37,-0.16 -0.37,-0.36l0 0c0,-0.2 0.17,-0.36 0.37,-0.36zm0 -1.52l1.26 0c0.2,0 0.37,0.17 0.37,0.36l0 0c0,0.2 -0.17,0.37 -0.37,0.37l-1.26 0c-0.2,0 -0.37,-0.17 -0.37,-0.37l0 0c0,-0.19 0.17,-0.36 0.37,-0.36zm0 -1.46l1.77 0c0.2,0 0.37,0.16 0.37,0.36l0 0c0,0.2 -0.17,0.36 -0.37,0.36l-1.77 0c-0.2,0 -0.37,-0.16 -0.37,-0.36l0 0c0,-0.2 0.17,-0.36 0.37,-0.36zm-0.86 -0.04l0 0.51c0,0.31 0,0.66 0,1.01l0 3.86c0,0.51 -0.21,1.17 -0.59,1.49 -0.43,0.36 -0.87,0.45 -1.65,0.45l-2.92 0 -1.7 0 -4.4 0c-0.77,0 -1.21,-0.09 -1.65,-0.45 -0.38,-0.32 -0.59,-0.98 -0.59,-1.49l0 -5.38c0,-0.63 0.3,-0.97 0.33,-1.09 0.06,0.05 0.11,0.13 0.16,0.2 0.07,0.09 0.12,0.09 0.2,0.17 0.07,0.08 0.09,0.1 0.19,0.17l1.33 1.19c0.09,0.07 0.12,0.1 0.19,0.17 0.44,0.38 1.33,1.18 1.73,1.52l1.16 1c0.07,0.07 0.1,0.1 0.19,0.17 0.38,0.31 0.83,0.48 1.27,0.49 0.42,-0.01 0.82,-0.15 1.19,-0.42l1.85 -1.62c0.1,-0.07 0.11,-0.1 0.2,-0.17l2.26 -2c0.04,-0.04 0.07,-0.06 0.09,-0.08l0.27 -0.23 0.22 -0.2c0.01,-0.01 0.01,-0.02 0.02,-0.02 0.02,-0.01 0.02,-0.02 0.04,-0.03 0.04,-0.03 0.07,-0.05 0.12,-0.12 0.05,-0.07 0.1,-0.14 0.15,-0.19l0.01 0.01c0,-0.01 0,-0.01 0,-0.01 0.03,0.12 0.33,0.46 0.33,1.09l0 0 0 0z"/>
   </g>
  </g>
 </g>
</svg>
