<?xml version="1.0" encoding="UTF-8"?>
<!DOCTYPE svg PUBLIC "-//W3C//DTD SVG 1.1//EN" "http://www.w3.org/Graphics/SVG/1.1/DTD/svg11.dtd">
<!-- Creator: CorelDRAW 2017 -->
<svg xmlns="http://www.w3.org/2000/svg" xml:space="preserve" width="88px" height="88px" version="1.1" style="shape-rendering:geometricPrecision; text-rendering:geometricPrecision; image-rendering:optimizeQuality; fill-rule:evenodd; clip-rule:evenodd"
viewBox="0 0 16.43 16.43"
 xmlns:xlink="http://www.w3.org/1999/xlink">
 <defs>
  <style type="text/css">
   <![CDATA[
    .fil0 {fill:none}
    .fil2 {fill:#FDFEFE}
    .fil1 {fill:#FF3FA5}
   ]]>
  </style>
 </defs>
 <g id="Layer_x0020_1">
  <metadata id="CorelCorpID_0Corel-Layer"/>
  <rect class="fil0" width="16.43" height="16.43"/>
  <g id="_2249931992832">
   <path class="fil1" d="M2.51 9.89c0.73,0 1.41,-0.01 2.09,0 0.39,0 0.59,0.16 0.63,0.47 0.05,0.38 -0.18,0.63 -0.59,0.64 -0.78,0.01 -1.56,0 -2.35,0 -0.22,0 -0.44,0.01 -0.67,0 -0.28,-0.02 -0.56,-0.07 -0.69,-0.36 -0.14,-0.29 -0.04,-0.55 0.14,-0.79 0.75,-0.95 1.5,-1.9 2.24,-2.85 0.05,-0.06 0.09,-0.11 0.13,-0.17 -0.04,-0.08 -0.11,-0.04 -0.17,-0.04 -0.52,-0.01 -1.05,0 -1.57,-0.01 -0.12,0 -0.24,-0.01 -0.36,-0.04 -0.27,-0.06 -0.44,-0.34 -0.38,-0.61 0.04,-0.18 0.19,-0.33 0.37,-0.37 0.12,-0.03 0.24,-0.05 0.36,-0.05 0.86,0 1.73,0 2.59,0 0.15,0 0.3,0.02 0.45,0.06 0.33,0.11 0.47,0.41 0.34,0.73 -0.12,0.28 -0.3,0.51 -0.49,0.75 -0.63,0.81 -1.26,1.61 -1.89,2.41 -0.06,0.06 -0.11,0.12 -0.18,0.23l0 0z"/>
   <path class="fil1" d="M8.11 7.35c0.12,-0.15 0.24,-0.29 0.44,-0.33 0.38,-0.08 0.74,0.17 0.74,0.55 0.02,0.97 0.01,1.94 0,2.9 0,0.25 -0.16,0.48 -0.4,0.55 -0.24,0.09 -0.52,0.02 -0.68,-0.19 -0.08,-0.1 -0.11,-0.12 -0.23,-0.03 -0.44,0.36 -0.94,0.42 -1.47,0.25 -0.86,-0.28 -1.21,-0.95 -1.31,-1.77 -0.1,-0.89 0.19,-1.64 0.98,-2.1 0.66,-0.39 1.33,-0.36 1.93,0.17l0 0zm-1.71 1.76c0.01,0.21 0.08,0.42 0.2,0.58 0.27,0.35 0.76,0.42 1.12,0.16 0.05,-0.04 0.11,-0.09 0.16,-0.16 0.27,-0.36 0.27,-0.97 0,-1.33 -0.14,-0.19 -0.35,-0.3 -0.58,-0.31 -0.53,-0.03 -0.9,0.38 -0.9,1.06l0 0zm5.06 0.03c-0.04,-1.24 0.78,-2.17 1.94,-2.2 1.23,-0.04 2.13,0.78 2.17,1.99 0.04,1.22 -0.71,2.09 -1.87,2.2 -1.26,0.13 -2.26,-0.78 -2.24,-1.99l0 0zm1.21 -0.12c-0.01,0.24 0.07,0.48 0.21,0.68 0.27,0.35 0.76,0.41 1.11,0.14 0.06,-0.03 0.1,-0.08 0.14,-0.13 0.28,-0.37 0.28,-0.99 0.01,-1.35 -0.14,-0.19 -0.35,-0.3 -0.58,-0.31 -0.52,-0.03 -0.89,0.37 -0.89,0.97l0 0zm-1.63 -0.84c0,0.75 0,1.49 0,2.24 0,0.35 -0.27,0.63 -0.61,0.64 -0.06,0 -0.12,0 -0.18,-0.02 -0.24,-0.06 -0.43,-0.32 -0.43,-0.62l0 -3.84c0,-0.23 0,-0.45 0,-0.68 0.01,-0.37 0.24,-0.61 0.6,-0.61 0.37,-0.01 0.62,0.23 0.62,0.62 0,0.75 0,1.51 0,2.27l0 0z"/>
   <path class="fil2" d="M6.4 9.11c0,-0.68 0.37,-1.09 0.9,-1.06 0.22,0.01 0.44,0.12 0.57,0.31 0.27,0.36 0.27,0.97 0,1.33 -0.26,0.35 -0.76,0.42 -1.11,0.16 -0.06,-0.04 -0.11,-0.09 -0.16,-0.16 -0.12,-0.16 -0.19,-0.37 -0.2,-0.58zm6.27 -0.09c0,-0.6 0.37,-1 0.89,-0.97 0.23,0.01 0.44,0.12 0.58,0.31 0.27,0.36 0.27,0.99 -0.01,1.35 -0.27,0.34 -0.77,0.4 -1.11,0.13 -0.06,-0.04 -0.1,-0.09 -0.14,-0.14 -0.14,-0.2 -0.21,-0.44 -0.21,-0.68l0 0z"/>
  </g>
 </g>
</svg>
